<svg width="44" height="40" viewBox="0 0 44 40" fill="none" xmlns="http://www.w3.org/2000/svg">
<path d="M43.0558 16.4566L35.4724 3.44659C34.2334 1.29814 31.9345 -0.0147939 29.4565 0.000125816L14.3942 0.0598048C11.9162 0.0747246 9.63225 1.40258 8.40816 3.55103L0.914366 16.6207C-0.30972 18.7692 -0.30972 21.41 0.944222 23.5435L8.52759 36.5535C9.7666 38.6871 12.0655 40 14.5435 40L29.6207 39.9403C32.0987 39.9254 34.3827 38.5975 35.6068 36.4491L43.0856 23.3794C44.3097 21.2309 44.3097 18.5901 43.0558 16.4566Z" fill="#024097"/>
<path d="M21.7089 26.4976C19.3802 27.0198 17.3798 25.9008 16.5737 23.6629C16.2752 23.7076 15.9617 23.7673 15.6631 23.827C14.8421 24.006 14.0211 24.1851 13.2 24.3492C12.8119 24.4536 12.3939 24.3343 12.1252 24.0359C11.8416 23.7673 11.7371 23.3495 11.8565 22.9766C12.2596 21.589 12.6328 20.1866 13.1105 18.8289C13.5135 17.6651 14.3943 16.949 15.6183 16.6804C16.2155 16.5611 16.8275 16.4566 17.4395 16.3671C17.6038 16.3522 17.753 16.2477 17.8127 16.0985C19.3503 13.0251 21.8134 10.8915 24.8438 9.35481C25.9037 8.8177 26.9934 8.37011 28.1876 8.20599C28.4563 8.13139 28.725 8.28059 28.7997 8.54915C29.2326 9.51893 29.4266 10.5484 29.5311 11.6077C29.8297 14.3679 29.5311 17.0385 28.4712 19.6047C28.1876 20.2462 27.8592 20.8729 27.5009 21.4846C27.3964 21.6338 27.3815 21.8128 27.4562 21.9769C27.6801 22.4991 27.8741 23.0362 28.0831 23.5584C28.6056 24.9012 28.3966 26.1246 27.4562 27.2138C26.5903 28.2134 25.7394 29.2279 24.8587 30.2276C24.2616 30.8989 23.2763 30.7199 22.9479 29.8695C22.5747 28.8699 22.2015 27.8702 21.8283 26.8557C21.7985 26.7363 21.7537 26.6319 21.7089 26.4976Z" fill="white"/>
<path d="M15.2153 28.7505C14.9018 28.8549 14.6331 28.9295 14.3793 29.0191C14.1554 29.1086 13.9165 29.034 13.7822 28.84C13.6329 28.661 13.6031 28.3924 13.7374 28.1836C14.1405 27.4674 14.5286 26.7513 14.9316 26.05C15.0809 25.7815 15.4093 25.677 15.678 25.8262C15.7527 25.871 15.8273 25.9307 15.887 26.0053C16.8126 27.3779 18.3352 28.2432 19.9922 28.3178C20.2907 28.3178 20.5445 28.5565 20.5445 28.8549C20.5445 28.9594 20.5147 29.0638 20.455 29.1533C20.0668 29.8844 19.6488 30.6006 19.2458 31.3167C19.1413 31.5256 18.9025 31.63 18.6785 31.5853C18.4546 31.5703 18.2755 31.4062 18.2307 31.1824C18.171 30.9139 18.1113 30.6304 18.0516 30.3022C17.8724 30.4066 17.7679 30.4663 17.6784 30.511C17.126 30.8691 16.5886 31.2421 16.0363 31.6151C15.8273 31.7643 15.6183 31.824 15.3795 31.7046C15.1556 31.5853 15.0361 31.3465 15.0809 31.0929C15.1556 30.3618 15.1854 29.6009 15.2153 28.7505Z" fill="white"/>
</svg>
